inDegrees=no
num_controls=7
num_derivatives=13
num_iterations=171
num_multipliers=7
num_parameters=0
num_slacks=7
num_states=26
objective=0.543925
objective_accelerations=0.060790
objective_balance=0.003257
objective_effort=0.047178
objective_height=0.422943
objective_ligament=0.009757
solver_duration=2039.390720
status=Solve_Succeeded
success=true
DataType=double
version=3
OpenSimVersion=4.5
endheader
time	/jointset/ground_pelvis/pelvis_tilt/value	/jointset/ground_pelvis/pelvis_tx/value	/jointset/ground_pelvis/pelvis_ty/value	/jointset/hip_r/hip_flexion_r/value	/jointset/hip_r/hip_adduction_r/value	/jointset/hip_r/hip_rotation_r/value	/jointset/back/lumbar_extension/value	/jointset/patellofemoral_r/patellar_flexion_r/value	/jointset/knee_r/knee_flexion_r/value	/jointset/knee_r/knee_adduction_r/value	/jointset/knee_r/knee_rotation_r/value	/jointset/ankle_r/ankle_angle_r/value	/jointset/subtalar_r/subtalar_angle_r/value	/jointset/ground_pelvis/pelvis_tilt/speed	/jointset/ground_pelvis/pelvis_tx/speed	/jointset/ground_pelvis/pelvis_ty/speed	/jointset/hip_r/hip_flexion_r/speed	/jointset/hip_r/hip_adduction_r/speed	/jointset/hip_r/hip_rotation_r/speed	/jointset/back/lumbar_extension/speed	/jointset/patellofemoral_r/patellar_flexion_r/speed	/jointset/knee_r/knee_flexion_r/speed	/jointset/knee_r/knee_adduction_r/speed	/jointset/knee_r/knee_rotation_r/speed	/jointset/ankle_r/ankle_angle_r/speed	/jointset/subtalar_r/subtalar_angle_r/speed	/forceset/tau_hip_flexion_r	/forceset/tau_hip_adduction_r	/forceset/tau_hip_rotation_r	/forceset/tau_knee_flexion_r	/forceset/tau_ankle_angle_r	/forceset/tau_subtalar_angle_r	/forceset/tau_lumbar_extension	lambda_cid13_p0	lambda_cid14_p0	lambda_cid14_p1	lambda_cid14_p2	lambda_cid14_p3	lambda_cid14_p4	lambda_cid14_p5	/jointset/ground_pelvis/pelvis_tilt/accel	/jointset/ground_pelvis/pelvis_tx/accel	/jointset/ground_pelvis/pelvis_ty/accel	/jointset/hip_r/hip_flexion_r/accel	/jointset/hip_r/hip_adduction_r/accel	/jointset/hip_r/hip_rotation_r/accel	/jointset/back/lumbar_extension/accel	/jointset/patellofemoral_r/patellar_flexion_r/accel	/jointset/knee_r/knee_flexion_r/accel	/jointset/knee_r/knee_adduction_r/accel	/jointset/knee_r/knee_rotation_r/accel	/jointset/ankle_r/ankle_angle_r/accel	/jointset/subtalar_r/subtalar_angle_r/accel	gamma_cid13_p0	gamma_cid14_p0	gamma_cid14_p1	gamma_cid14_p2	gamma_cid14_p3	gamma_cid14_p4	gamma_cid14_p5
1.5	-0.200453025141012	0.01837513956337529	0.8190360269476789	0.9401116841833415	-0.2442282030874295	-0.08305558069199273	-0.3047051486481464	0.8379709657184579	0.8379709657184383	0.06191228099157568	0.174348991344837	0.2694291641304695	0.03840773596295782	0.4628995712368161	0.1957190217864741	0.5471801588883057	-2.18683902481269	0.03629156145329146	-0.4866906901294001	0.6975340962354366	-2.255322708548133	-2.255322708548134	0.1614333741116931	0.002608200322058635	-0.6277565536695706	-0.1127792155599848	-0.12683974720176	-0.02250390510227213	0.0154525739108838	-0.3515110907543735	0.08581538219812257	-0.008799273744275655	0.1643965996577235	-22.97568083170734	-13.11167694025099	-2.512045665466996	-3.25759257416091	-2.489346262069204	-647.0513978232231	59.49583640660987	0.3849508760601023	0.5781273426724701	-0.6744815632333984	-1.158863485601169	0.2006309348705577	-0.2263240961618232	1.671234206890574	-1.38207778659276	-1.382077786592759	0.6386798618767988	-0.04796480879608583	-0.6897480009139574	0.1408227125463597	1.787395000795213e-07	1.001599270581548e-07	-1.87146645709523e-06	7.670184407246951e-07	1.479329712607523e-07	2.436947148470223e-07	-1.146936966767845e-06
1.51	-0.1958052086135873	0.0203609827763768	0.8244729102998566	0.9181877880216763	-0.2438561771048473	-0.08793433419971119	-0.2976476076613487	0.8153516184995905	0.8153516184995829	0.06355976971245221	0.1743744228958994	0.2631177512680255	0.0372858533419238	0.4665901583181116	0.201418938496979	0.5400747762721554	-2.197634093495592	0.03810586869852199	-0.4890305249455734	0.7138647457974303	-2.268220596957972	-2.26822059695797	0.1680728321526549	0.002473426883302119	-0.6344264360107864	-0.1115877760201822	-0.1193456778856193	-0.02418078333284376	0.01489274339713645	-0.3470763102367064	0.08873889384354444	-0.0098438145793176	0.1576292514102521	-24.41397621325912	-11.92087248196525	-2.643704162642883	-3.366228878977754	-2.863272011693081	-641.5980568615142	59.22380362472574	0.3500876384081933	0.5613509430119087	-0.746771472534516	-0.9938963968204609	0.1706332136422786	-0.233115496701864	1.597577031853705	-1.194762643875546	-1.194762643875047	0.67758310964035	0.003205857294915758	-0.6406252480328993	0.1095224844894255	1.895235857722761e-07	1.10185541250388e-07	-1.951478809405443e-06	8.31179340490336e-07	1.474996963607934e-07	2.657736852860971e-07	-1.203301222927472e-06
1.52	-0.1911226912125009	0.02240291057803784	0.8298350988535279	0.8961651276057452	-0.2434662475309542	-0.09283554652006273	-0.2904300408387311	0.7926130687414853	0.79261306874149	0.06527385388062526	0.1743983946063163	0.2567426362027079	0.03617612869824626	0.4698397459691641	0.2069359395183797	0.532241199187002	-2.206591875665921	0.03987227971547209	-0.4911824526560177	0.729539263399421	-2.279163216395653	-2.279163216395649	0.1747524635709959	0.002316232192959541	-0.6404969942443023	-0.1103476200886906	-0.1118516085694512	-0.02585766156341538	0.01433291288338903	-0.3426415297190392	0.09166240548896631	-0.01088835541435953	0.1508619031627806	-25.83564619801342	-10.7353778524043	-2.77207621151857	-3.480205317337481	-3.241515747949516	-636.2338819693628	59.02235226100333	0.2967509900114951	0.5415442048516176	-0.8201204570339701	-0.7914061830863968	0.1910516892145137	-0.188742675016032	1.540007814889941	-0.9910239921611761	-0.9910239921611775	0.6467145373526303	-0.05244905911330483	-0.5698831793739642	0.1505659908841919	2.005565195159873e-07	1.206109686049376e-07	-2.039510381879406e-06	8.948420342819474e-07	1.468495519234846e-07	2.919569545889715e-07	-1.265184081997845e-06
1.53	-0.1864098854762634	0.0244990295740575	0.8351154099664309	0.8740620489591341	-0.2430589704916732	-0.09775744329877659	-0.283059196533363	0.7697749005787555	0.7697749005787661	0.06705501538981644	0.1744207954367392	0.2503098305764279	0.0350789683145298	0.4726421211646479	0.2122502635887865	0.5237075524452499	-2.213705205677667	0.04157372888697746	-0.4931708919381625	0.7445070178825708	-2.288130289674963	-2.288130289674958	0.1814811905055632	0.002162127449508671	-0.6459571270220518	-0.1090751875529228	-0.1043121308453408	-0.02766961281547513	0.01373736125183511	-0.338435775544252	0.0947276638741551	-0.01206218810025397	0.1440640693859103	-27.23701138838547	-9.529181728596839	-2.959532488550276	-3.577271553107866	-3.591089420444037	-631.1592881875853	58.76650154094518	0.260100622873456	0.5207661931351969	-0.8869396544102838	-0.6234825735581555	0.1582431159925051	-0.1996898694486636	1.456772296282283	-0.798573604898395	-0.7985736048984429	0.6858680468398163	0.003006728069328068	-0.5179781281119095	0.1167444532852673	2.118538543138396e-07	1.314611974444482e-07	-2.136062375777352e-06	9.579753842261523e-07	1.459689836027415e-07	3.225010414346329e-07	-1.332930456660887e-06
1.54	-0.1816714320203598	0.02664716974778122	0.8403069940375834	0.8518973997797373	-0.2426349686437024	-0.1026983835332389	-0.2755423520769125	0.746857256761416	0.7468572567614326	0.0689034474234195	0.1744416348017337	0.2438256436621431	0.03399476476984346	0.474969289902405	0.2173401750591925	0.514495790836919	-2.218905982222991	0.04321724145344109	-0.4949911438057059	0.7587392936159117	-2.295058347317575	-2.29505834731757	0.188206568453372	0.002003939107268279	-0.65077325184526	-0.107756252282667	-0.09677265312123046	-0.0294815640675345	0.0131418096202811	-0.3342300213694649	0.0977929222593439	-0.01323602078614841	0.1372662356090401	-28.61543053585053	-8.326895134554245	-3.143161406648975	-3.680102054011097	-3.949995672415601	-626.1549373744044	58.58377775343848	0.2017096984661292	0.4966616848514427	-0.9557434303497709	-0.4088954898020351	0.1794643682061652	-0.1551051920957379	1.392912064928146	-0.5832208648215492	-0.583220864821549	0.6460447400009248	-0.05326577887138542	-0.4410815884657046	0.1598665377818158	2.230527476912701e-07	1.416969911089311e-07	-2.237894217575065e-06	1.016534151280456e-06	1.454985745107611e-07	3.549297536950291e-07	-1.402500267796996e-06
